# AST/ASF file generated using VICON BodyLanguage
# -----------------------------------------------
:version 1.10
:name VICON
:units
  mass 1.0
  length 0.45
  angle deg
:documentation
   .ast/.asf automatically generated from VICON data using
   VICON BodyBuilder and BodyLanguage model FoxedUp or BRILLIANT.MOD
:root
   order TX TY TZ RX RY RZ
   axis XYZ
   position 0 0 0  
   orientation 0 0 0 
:bonedata
  begin
     id 1 
     name lhipjoint
     direction 0.602128 -0.715006 0.355257 
     length 2.21237 
     axis 0 0 0  XYZ
  end
  begin
     id 2 
     name lfemur
     direction 0.34202 -0.939693 0  
     length 6.71649  
     axis 0 0 20  XYZ
    dof rx ry rz
    limits (-160.0 20.0)
           (-70.0 70.0)
           (-60.0 70.0)
  end
  begin
     id 3 
     name ltibia
     direction 0.34202 -0.939693 0   
     length 6.97123   
     axis 0 0 20   XYZ
    dof rx
    limits (-10.0 170.0)
  end
  begin
     id 4 
     name lfoot
     direction 0.0655697 -0.180151 0.981451   
     length 1.80924   
     axis -90 7.62852e-016 20   XYZ
    dof rx rz
    limits (-45.0 90.0)
           (-70.0 20.0)
  end
  begin
     id 5 
     name ltoes
     direction 1.53545e-011 -4.21827e-011 1   
     length 0.916331   
     axis -90 7.62852e-016 20   XYZ
    dof rx
    limits (-90.0 20.0)
  end
  begin
     id 6 
     name rhipjoint
     direction -0.625414 -0.698792 0.347201   
     length 2.2637  
     axis 0 0 0  XYZ 
  end
  begin
     id 7 
     name rfemur
     direction -0.34202 -0.939693 0   
     length 7.07595   
     axis 0 0 -20   XYZ
    dof rx ry rz
    limits (-160.0 20.0)
           (-70.0 70.0)
           (-70.0 60.0)
  end
  begin
     id 8 
     name rtibia
     direction -0.34202 -0.939693 0   
     length 7.22924   
     axis 0 0 -20   XYZ
    dof rx
    limits (-10.0 170.0)
 end
 begin
     id 9 
     name rfoot
     direction -0.0766747 -0.210662 0.974547   
     length 1.98482  
     axis -90 -7.62852e-016 -20   XYZ
    dof rx rz
    limits (-45.0 90.0)
           (-20.0 70.0)
  end
  begin
     id 10 
     name rtoes
     direction -1.53532e-011 -4.21867e-011 1   
     length 0.999842   
     axis -90 -7.62852e-016 -20   XYZ
    dof rx
    limits (-90.0 20.0)
  end
  begin
     id 11 
     name lowerback
     direction -0.0224668 0.997354 -0.0691422   
     length 2.09945   
     axis 0 0 0   XYZ
    dof rx ry rz
    limits (-20.0 45.0)
           (-30.0 30.0)
           (-30.0 30.0)
  end
  begin
     id 12 
     name upperback
     direction 0.0134698 0.998451 -0.0539888   
     length 2.09758   
     axis 0 0 0   XYZ
    dof rx ry rz
    limits (-20.0 45.0)
           (-30.0 30.0)
           (-30.0 30.0)
  end
  begin
     id 13 
     name thorax
     direction 0.0241905 0.99948 -0.0213333   
     length 2.10428   
     axis 0 0 0   XYZ
    dof rx ry rz
    limits (-20.0 45.0)
           (-30.0 30.0)
           (-30.0 30.0)
  end
  begin
     id 14 
     name lowerneck
     direction -0.00866847 0.995978 0.0891737   
     length 1.3959   
     axis 0 0 0   XYZ
    dof rx ry rz
    limits (-20.0 45.0)
           (-30.0 30.0)
           (-30.0 30.0)
  end
  begin
     id 15 
     name upperneck
     direction 0.0680679 0.992203 0.104404   
     length 1.39452   
     axis 0 0 0   XYZ
    dof rx ry rz
    limits (-20.0 45.0)
           (-30.0 30.0)
           (-30.0 30.0)
  end
  begin
     id 16
     name head
     direction 0.0242216 0.999358 0.0264054  
     length 1.40433  
     axis 0 0 0   XYZ
    dof rx ry rz
    limits (-20.0 45.0)
           (-30.0 30.0)
           (-30.0 30.0)
  end
  begin
     id 17 
     name lclavicle
     direction 0.929368 0.362991 -0.0671771  
     length 3.04887  
     axis 0 0 0   XYZ
    dof ry rz
    limits (-20.0 10.0)
           (0.0 20.0)
  end
  begin
     id 18 
     name lhumerus
     direction 1 -4.48967e-011 -7.13741e-028   
     length 4.77195   
     axis -180 -30 -90   XYZ
    dof rx ry rz
    limits (-60.0 90.0)
           (-90.0 90.0)
           (-90.0 90.0)
  end
  begin
     id 19
     name lradius
     direction 1 -4.48977e-011 3.60404e-027   
     length 2.98444   
     axis -180 -30 -90   XYZ
    dof rx
    limits (-10.0 170.0)
  end
  begin
     id 20
     name lwrist
     direction 1 -4.48997e-011 7.54877e-027   
     length 1.49222   
     axis -7.18178e-015 90 90   XYZ
    dof ry
    limits (-180.0 0.0)
 end
  begin
     id 21 
     name lhand
     direction 1 -4.489e-011 1.51105e-026   
     length 0.992285   
     axis -9.63605e-015 90 90   XYZ
    dof rx rz
    limits (-90.0 90.0)
           (-45.0 45.0)
  end
  begin
     id 22 
     name lfingers
     direction 1 -4.48998e-011 3.01948e-026   
     length 0.800006   
     axis -1.92718e-014 90 90   XYZ
    dof rx
    limits (0.0 90.0)
  end
  begin
     id 23
     name lthumb
     direction 0.707107 -6.34881e-011 0.707107   
     length 1.14865   
     axis -90 45 -3.53137e-014   XYZ
    dof rx rz
    limits (-45.0 45.0)
           (-45.0 45.0)
  end
  begin
     id 24 
     name rclavicle
     direction -0.945672 0.324529 0.0196374   
     length 3.4236  
     axis 0 0 0   XYZ 
    dof ry rz
    limits (-10.0 20.0)
           (-20.0 0.0)
  end
  begin
     id 25 
     name rhumerus
     direction -1 -4.4896e-011 1.02757e-029  
     length 4.62052   
     axis -180 30 90   XYZ
    dof rx ry rz
    limits (-90.0 60.0)
           (-90.0 90.0)
           (-90.0 90.0)
  end
  begin
     id 26 
     name rradius
     direction -1 -4.48982e-011 3.85962e-027   
     length 2.95332   
     axis -180 30 90   XYZ
    dof rx
    limits (-10.0 170.0)
  end
  begin
     id 27 
     name rwrist
     direction -1 -4.48961e-011 7.55118e-027   
     length 1.47666   
     axis -7.18178e-015 -90 -90   XYZ
    dof ry
    limits (-180.0 0.0)
  end
  begin
     id 28
     name rhand
     direction -1 -4.48984e-011 1.50994e-026   
     length 0.990956   
     axis -9.63605e-015 -90 -90   XYZ
    dof rx rz
    limits (-90.0 90.0)
           (-45.0 45.0)
  end
  begin
     id 29
     name rfingers
     direction -1 -4.4892e-011 3.02158e-026   
     length 0.798934   
     axis -1.92718e-014 -90 -90   XYZ
    dof rx
    limits (0.0 90.0)
  end
  begin
     id 30
     name rthumb
     direction -0.707107 -6.34916e-011 0.707107   
     length 1.14711   
     axis -90 -45 3.53137e-014   XYZ
    dof rx rz
    limits (-45.0 45.0)
           (-45.0 45.0)
  end
:hierarchy
  begin
    root lhipjoint rhipjoint lowerback
    lhipjoint lfemur
    lfemur ltibia
    ltibia lfoot
    lfoot ltoes
    rhipjoint rfemur
    rfemur rtibia
    rtibia rfoot
    rfoot rtoes
    lowerback upperback
    upperback thorax
    thorax lowerneck lclavicle rclavicle
    lowerneck upperneck
    upperneck head
    lclavicle lhumerus
    lhumerus lradius
    lradius lwrist
    lwrist lhand lthumb
    lhand lfingers
    rclavicle rhumerus
    rhumerus rradius
    rradius rwrist
    rwrist rhand rthumb
    rhand rfingers
  end

#!OML:ASF H:\ManfredObstacles\Project 1\Capture day 1\Session 1\Male.ASF
:FULLY-SPECIFIED
:DEGREES
244
root 8.41024 15.4816 18.1203 -163.328 -65.6981 -170.832
lowerback 13.0257 0.241612 -3.64534
upperback 10.5956 -0.856728 -1.30496
thorax 3.89984 -0.939202 0.733319
lowerneck 2.60353 -5.39847 -5.00966
upperneck -12.121 -6.63277 12.4344
head -3.39233 -3.85543 4.85247
rclavicle 6.36111e-015 7.95139e-016
rhumerus -17.5051 -11.1199 -86.2608
rradius 42.0348
rwrist 21.9851
rhand -4.04568 -4.20774
rfingers 7.12502
rthumb 21.7101 -33.0104
lclavicle 6.36111e-015 7.95139e-016
lhumerus -2.19176 -2.85169 79.6864
lradius 30.6198
lwrist -14.8876
lhand -12.6701 5.84143
lfingers 7.12502
lthumb 13.4111 35.3897
rfemur -58.3425 -10.1936 30.2288
rtibia 51.0235
rfoot -25.122 -8.8715
rtoes 3.53408
lfemur -56.3833 -5.06823 -15.9815
ltibia 47.5111
lfoot -9.0305 -7.93892
ltoes 22.0749
245
root 8.46776 15.4067 18.1494 -162.993 -66.0887 -170.907
lowerback 14.0399 0.137992 -3.15116
upperback 11.0761 -1.0635 -1.46974
thorax 3.87406 -1.04352 0.309695
lowerneck 3.0203 -5.39888 -4.78485
upperneck -12.9313 -6.57982 12.532
head -3.71414 -3.88795 4.89024
rclavicle -4.69132e-014 -3.81667e-014
rhumerus -16.1897 -11.2561 -86.704
rradius 42.1023
rwrist 21.7728
rhand -4.32027 -4.00827
rfingers 7.12502
rthumb 21.4464 -32.8412
lclavicle -4.69132e-014 -3.81667e-014
lhumerus -0.977405 -2.94155 79.2645
lradius 30.329
lwrist -14.6955
lhand -13.0051 5.91398
lfingers 7.12502
lthumb 13.0883 35.4833
rfemur -59.6065 -10.5952 30.491
rtibia 52.0686
rfoot -25.3308 -8.91517
rtoes 2.31521
lfemur -57.6357 -6.11144 -15.4176
ltibia 48.5329
lfoot -9.44979 -7.34903
ltoes 22.2024
246
root 8.52644 15.4038 18.1207 -163.267 -66.492 -171.18
lowerback 16.2188 0.468837 -5.36546
upperback 10.8463 -1.02274 -0.0162629
thorax 2.57069 -1.18171 3.12354
lowerneck 5.75166 -5.1754 -5.9452
upperneck -14.1502 -6.40627 11.7815
head -4.55032 -3.76726 4.99196
rclavicle -7.07673e-014 -1.11319e-013
rhumerus -16.6723 -9.61195 -84.7175
rradius 42.6263
rwrist 21.0737
rhand -4.21713 -3.90357
rfingers 7.12502
rthumb 21.5454 -32.7252
lclavicle -7.07673e-014 -1.11319e-013
lhumerus -1.44816 -0.839737 81.2823
lradius 29.7087
lwrist -15.7171
lhand -13.1438 5.93607
lfingers 7.12502
lthumb 12.9546 35.5139
rfemur -59.2899 -9.73134 29.7967
rtibia 52.9014
rfoot -25.9836 -10.1217
rtoes 3.31058
lfemur -57.5522 -6.53067 -15.2016
ltibia 49.297
lfoot -9.91223 -7.52491
ltoes 21.94
247
root 8.58004 15.2936 18.174 -162.558 -66.2624 -171.338
lowerback 17.0988 0.599061 -5.42188
upperback 11.1302 -0.97121 0.206216
thorax 2.42585 -1.1939 3.39612
lowerneck 6.1357 -5.11799 -6.15272
upperneck -14.9772 -6.35371 11.6311
head -4.87135 -3.75132 5.02582
rclavicle -2.78299e-014 -2.70347e-014
rhumerus -15.7222 -9.1689 -84.1862
rradius 43.2796
rwrist 20.619
rhand -4.02722 -3.78818
rfingers 7.12502
rthumb 21.7278 -32.5888
lclavicle -2.78299e-014 -2.70347e-014
lhumerus 0.177206 0.726859 82.0554
lradius 28.6666
lwrist -16.6765
lhand -13.1906 5.88249
lfingers 7.12502
lthumb 12.9095 35.4632
rfemur -61.2245 -10.5779 30.4738
rtibia 54.0013
rfoot -25.543 -8.76158
rtoes 4.52571
lfemur -59.2184 -6.84212 -15.0479
ltibia 50.3615
lfoot -10.4091 -6.85833
ltoes 20.7677
248
root 8.62892 15.2418 18.1791 -162.191 -66.1224 -171.744
lowerback 17.9502 0.619436 -6.0127
upperback 12.3601 -1.25771 0.448523
thorax 3.40042 -1.51735 4.01672
lowerneck 4.00717 -4.93803 -6.93669
upperneck -15.2245 -6.1274 11.9092
head -4.56237 -3.61049 5.16625
rclavicle 1.11319e-014 6.83819e-014
rhumerus -12.9676 -8.08431 -84.4034
rradius 43.6213
rwrist 20.0513
rhand -4.38893 -3.8418
rfingers 7.12502
rthumb 21.3804 -32.6822
lclavicle 1.11319e-014 6.83819e-014
lhumerus 3.18038 3.00092 82.5357
lradius 27.7504
lwrist -17.1127
lhand -13.3728 6.17102
lfingers 7.12502
lthumb 12.7338 35.7627
rfemur -61.9811 -10.7195 30.5474
rtibia 54.8818
rfoot -25.5468 -8.4337
rtoes 4.69015
lfemur -59.8344 -6.80806 -15.1409
ltibia 51.1906
lfoot -10.9059 -6.712
ltoes 19.6367
249
root 8.67653 15.1938 18.1808 -161.568 -65.963 -172.284
lowerback 18.8093 0.825003 -5.95946
upperback 12.9052 -1.14374 0.0908962
thorax 3.54056 -1.50175 3.59353
lowerneck 4.53725 -5.06754 -6.319
upperneck -16.2946 -6.21032 12.1537
head -4.98339 -3.75335 5.21028
rclavicle 9.06458e-014 3.33958e-014
rhumerus -11.9816 -8.56057 -85.0476
rradius 44.1082
rwrist 19.6591
rhand -4.84554 -3.9358
rfingers 7.12502
rthumb 20.9418 -32.8253
lclavicle 9.06458e-014 3.33958e-014
lhumerus 4.90812 2.67314 82.1538
lradius 27.2762
lwrist -16.5708
lhand -13.3693 7.13062
lfingers 7.12502
lthumb 12.7371 36.7221
rfemur -62.814 -10.5195 30.3899
rtibia 55.7922
rfoot -25.6525 -8.42865
rtoes 4.80036
lfemur -60.6154 -6.69272 -15.3147
ltibia 52.1297
lfoot -11.3819 -6.69454
ltoes 19.2154
250
root 8.72095 15.1417 18.1918 -161.034 -65.8038 -172.506
lowerback 19.6331 0.813932 -5.61094
upperback 13.2785 -1.24415 -0.31888
thorax 3.52463 -1.55094 2.98311
lowerneck 4.9702 -5.10111 -5.9334
upperneck -17.1182 -6.17353 12.4269
head -5.31776 -3.82089 5.28737
rclavicle -7.15625e-014 -6.44062e-014
rhumerus -11.0253 -8.82676 -85.7203
rradius 44.5369
rwrist 19.8654
rhand -4.75022 -3.98133
rfingers 7.12502
rthumb 21.0334 -32.8607
lclavicle -7.15625e-014 -6.44062e-014
lhumerus 6.4716 3.15462 81.7721
lradius 26.4959
lwrist -16.6744
lhand -13.2886 7.14253
lfingers 7.12502
lthumb 12.815 36.7292
rfemur -63.8232 -10.2112 30.3465
rtibia 56.5635
rfoot -25.6321 -8.55569
rtoes 4.4142
lfemur -61.64 -6.64542 -15.2838
ltibia 52.9786
lfoot -11.7126 -6.58836
ltoes 19.4226
251
root 8.76038 15.09 18.2042 -160.985 -65.5379 -172.199
lowerback 20.4702 0.799957 -5.22426
upperback 13.6354 -1.34263 -0.61594
thorax 3.49019 -1.60034 2.47303
lowerneck 5.38609 -5.03285 -5.80275
upperneck -17.8682 -5.99383 12.8625
head -5.62673 -3.81618 5.45224
rclavicle 4.77083e-015 7.07673e-014
rhumerus -10.0588 -8.60165 -86.1662
rradius 44.9791
rwrist 19.7447
rhand -4.55262 -4.16818
rfingers 7.12502
rthumb 21.2232 -33.0263
lclavicle 4.77083e-015 7.07673e-014
lhumerus 7.9426 3.69424 81.4705
lradius 25.8495
lwrist -16.7571
lhand -13.3997 7.19633
lfingers 7.12502
lthumb 12.7078 36.7897
rfemur -64.7664 -9.75029 30.4836
rtibia 57.275
rfoot -25.6652 -8.65272
rtoes 4.7703
lfemur -62.6472 -6.50955 -15.0205
ltibia 53.8416
lfoot -11.9679 -6.52167
ltoes 20.1324
252
root 8.79457 15.0257 18.2143 -160.78 -65.1937 -171.958
lowerback 21.1429 1.0183 -4.99481
upperback 14.0019 -1.15252 -0.768161
thorax 3.54142 -1.52379 2.1526
lowerneck 5.96568 -5.06571 -5.45197
upperneck -18.8582 -5.92545 13.2089
head -6.04376 -3.88961 5.57855
rclavicle -3.49861e-014 -7.55382e-014
rhumerus -9.34589 -8.50851 -86.2926
rradius 45.5509
rwrist 18.6296
rhand -4.92415 -4.16861
rfingers 7.12502
rthumb 20.8663 -33.0665
lclavicle -3.49861e-014 -7.55382e-014
lhumerus 9.36727 3.35135 81.3327
lradius 25.5713
lwrist -16.3779
lhand -13.4556 7.29775
lfingers 7.12502
lthumb 12.654 36.8944
rfemur -65.8833 -9.39 30.7089
rtibia 58.0101
rfoot -25.5673 -8.5567
rtoes 5.1819
lfemur -63.7718 -6.38124 -14.7737
ltibia 54.7394
lfoot -12.2386 -6.33606
ltoes 20.452
253
root 8.8232 14.9743 18.2097 -160.604 -64.8997 -171.983
lowerback 22.1022 1.23537 -5.35382
upperback 14.3082 -1.08189 -0.591978
thorax 3.42819 -1.55998 2.54228
lowerneck 6.43935 -5.00496 -5.72676
upperneck -19.4791 -5.82836 13.4122
head -6.31444 -3.87507 5.74053
rclavicle 1.11319e-013 8.78628e-014
rhumerus -8.56035 -8.07425 -86.1826
rradius 45.8679
rwrist 17.7191
rhand -5.33733 -3.91077
rfingers 7.12502
rthumb 20.4693 -32.8518
lclavicle 1.11319e-013 8.78628e-014
lhumerus 10.3593 3.78366 81.6674
lradius 25.47
lwrist -16.3714
lhand -13.3358 7.1551
lfingers 7.12502
lthumb 12.7694 36.7446
rfemur -66.5995 -9.17496 30.8241
rtibia 58.7068
rfoot -25.5194 -8.38927
rtoes 5.71603
lfemur -64.4498 -6.30429 -14.6876
ltibia 55.5578
lfoot -12.608 -6.10603
ltoes 19.4792
254
root 8.84519 14.9315 18.2033 -160.332 -64.6791 -172.183
lowerback 23.0311 1.49417 -5.15269
upperback 14.6792 -0.877934 -0.786942
thorax 3.37159 -1.4785 2.18766
lowerneck 6.65078 -5.26284 -4.98836
upperneck -19.9158 -6.05787 13.5267
head -6.49161 -4.07824 5.70021
rclavicle 1.145e-013 7.11649e-014
rhumerus -7.92897 -8.89514 -86.4497
rradius 46.3676
rwrist 17.5163
rhand -5.11209 -3.66769
rfingers 7.12502
rthumb 20.6857 -32.5853
lclavicle 1.145e-013 7.11649e-014
lhumerus 11.4247 2.50528 81.2239
lradius 25.6762
lwrist -15.6862
lhand -13.1452 7.33943
lfingers 7.12502
lthumb 12.9532 36.9174
rfemur -67.1975 -9.11827 30.883
rtibia 59.372
rfoot -25.5815 -8.12685
rtoes 6.21417
lfemur -64.9732 -6.34125 -14.6655
ltibia 56.2916
lfoot -12.9823 -5.86723
ltoes 18.6194
255
root 8.86087 14.8924 18.1978 -159.811 -64.4164 -172.54
lowerback 23.6929 1.59833 -5.43363
upperback 15.1153 -0.943759 -0.7277
thorax 3.56828 -1.58783 2.4202
lowerneck 6.78456 -5.18785 -5.15888
upperneck -20.3534 -5.93671 13.7078
head -6.65286 -4.04959 5.8146
rclavicle 1.08139e-013 5.04913e-014
rhumerus -6.99712 -8.98077 -86.6857
rradius 46.8031
rwrist 17.6503
rhand -4.9342 -3.60065
rfingers 7.12502
rthumb 20.8566 -32.4996
lclavicle 1.08139e-013 5.04913e-014
lhumerus 12.3926 1.78889 81.0073
lradius 26.1198
lwrist -14.9798
lhand -13.316 8.28442
lfingers 7.12502
lthumb 12.7886 37.8727
rfemur -67.8826 -9.10441 30.9053
rtibia 59.9506
rfoot -25.554 -7.72646
rtoes 7.07429
lfemur -65.5654 -6.44034 -14.6445
ltibia 56.925
lfoot -13.3616 -5.54013
ltoes 18.6489
256
root 8.87164 14.8531 18.193 -158.968 -64.1696 -172.867
lowerback 23.8413 1.69518 -5.63378
upperback 15.5021 -0.942943 -0.650807
thorax 3.95194 -1.65246 2.60441
lowerneck 7.18787 -5.11738 -5.21594
upperneck -21.0341 -5.80831 13.8174
head -6.95061 -4.03278 5.91396
rclavicle 6.36111e-015 -3.57812e-015
rhumerus -6.04145 -8.40488 -86.3719
rradius 47.1391
rwrist 16.7663
rhand -5.10403 -3.74742
rfingers 7.12502
rthumb 20.6935 -32.6642
lclavicle 6.36111e-015 -3.57812e-015
lhumerus 13.601 1.79636 81.1667
lradius 25.9205
lwrist -15.3492
lhand -13.5154 7.66313
lfingers 7.12502
lthumb 12.5963 37.2634
rfemur -68.9249 -9.15861 31.0941
rtibia 60.3934
rfoot -25.4049 -7.16595
rtoes 8.40019
lfemur -66.521 -6.51963 -14.5567
ltibia 57.4624
lfoot -13.6419 -5.14208
ltoes 18.747
257
root 8.88131 14.8237 18.188 -158.204 -63.8317 -172.891
lowerback 23.7421 1.71935 -5.87208
upperback 15.7543 -0.993657 -0.523903
thorax 4.30818 -1.73446 2.87374
lowerneck 7.42858 -5.06832 -5.46137
upperneck -21.3498 -5.7332 14.0068
head -7.08659 -4.01621 6.04567
rclavicle -9.70069e-014 -3.37934e-014
rhumerus -5.29194 -8.1228 -86.4862
rradius 47.3467
rwrist 16.687
rhand -5.31731 -3.83296
rfingers 7.12502
rthumb 20.4885 -32.7719
lclavicle -9.70069e-014 -3.37934e-014
lhumerus 14.4182 1.53565 81.1518
lradius 26.2597
lwrist -15.2305
lhand -13.5545 8.34714
lfingers 7.12502
lthumb 12.5587 37.9497
rfemur -70.0495 -8.93224 31.3352
rtibia 60.7477
rfoot -25.2995 -6.81833
rtoes 9.24348
lfemur -67.6095 -6.39225 -14.3894
ltibia 57.9439
lfoot -13.7987 -4.82801
ltoes 18.8863
258
root 8.89846 14.8147 18.1834 -157.542 -63.4155 -172.558
lowerback 23.4175 1.81042 -5.87855
upperback 15.9894 -0.890796 -0.478452
thorax 4.72889 -1.71425 2.89081
lowerneck 7.52254 -5.06291 -5.33502
upperneck -21.6525 -5.65337 14.2542
head -7.20547 -4.03299 6.12792
rclavicle -8.90555e-014 -8.54774e-014
rhumerus -4.57217 -8.28817 -86.7122
rradius 47.5936
rwrist 16.7823
rhand -5.09832 -3.90253
rfingers 7.12502
rthumb 20.6989 -32.8187
lclavicle -8.90555e-014 -8.54774e-014
lhumerus 15.2288 0.696571 80.7514
lradius 26.6719
lwrist -14.6969
lhand -13.8792 8.28574
lfingers 7.12502
lthumb 12.2456 37.9072
rfemur -71.1193 -7.84481 31.1977
rtibia 60.9189
rfoot -25.2445 -7.31244
rtoes 9.19981
lfemur -68.8532 -6.07965 -14.0458
ltibia 58.2909
lfoot -13.7846 -4.54659
ltoes 19.4573
